<svg width="280" height="152" viewBox="0 0 280 152" fill="none" xmlns="http://www.w3.org/2000/svg">
<path d="M74.2266 129.177L112.085 61.4491L138.91 13.4646C143.345 5.52932 151.727 0.61145 160.819 0.61145H190.33L133.646 98.7947L106.81 145.277C101.634 154.241 88.6951 154.241 83.519 145.277L74.2266 129.177Z" fill="url(#paint0_linear_108_539)"/>
<path d="M50.4517 88.0033L74.0638 45.7632L89.3033 72.1543L65.6911 114.394L50.4517 88.0033Z" fill="url(#paint1_linear_108_539)"/>
<path d="M0 0.609619H33.5035C42.4714 0.609619 50.7581 5.39301 55.2403 13.1597L65.5296 30.9809L41.9174 73.2121L0 0.609619Z" fill="url(#paint2_linear_108_539)"/>
<path d="M74.0638 45.7632L52.8595 92.1718L50.4517 88.0034L74.0638 45.7632Z" fill="url(#paint3_linear_108_539)"/>
<path d="M100.022 83.0299L78.1637 135.995L74.2266 129.177L100.022 83.0299Z" fill="url(#paint4_linear_108_539)"/>
<path fill-rule="evenodd" clip-rule="evenodd" d="M195.992 144.667L279.513 0H217.04C209.896 0 203.173 3.03893 198.466 8.21138C198.466 8.21153 198.466 8.21168 198.466 8.21183L198.466 8.21094C197.274 9.5287 196.207 10.972 195.302 12.5497L158.242 76.7443L145.859 98.1853L150.837 106.806L150.835 106.809L172.697 144.669C175.602 149.7 180.952 151.907 186.002 151.29C189.953 150.81 193.72 148.602 195.992 144.667Z" fill="url(#paint5_linear_108_539)"/>
<defs>
<linearGradient id="paint0_linear_108_539" x1="132.278" y1="0.61145" x2="143.771" y2="152.792" gradientUnits="userSpaceOnUse">
<stop stop-color="#FE0133"/>
<stop offset="1" stop-color="#EF971F"/>
</linearGradient>
<linearGradient id="paint1_linear_108_539" x1="69.8775" y1="45.7632" x2="76.9027" y2="114.428" gradientUnits="userSpaceOnUse">
<stop stop-color="#FE0133"/>
<stop offset="1" stop-color="#EF971F"/>
</linearGradient>
<linearGradient id="paint2_linear_108_539" x1="32.7648" y1="0.609619" x2="37.4554" y2="73.707" gradientUnits="userSpaceOnUse">
<stop stop-color="#FE0133"/>
<stop offset="1" stop-color="#EF971F"/>
</linearGradient>
<linearGradient id="paint3_linear_108_539" x1="62.2577" y1="45.7632" x2="67.5303" y2="92.0803" gradientUnits="userSpaceOnUse">
<stop stop-color="#FE0133"/>
<stop offset="1" stop-color="#EF971F"/>
</linearGradient>
<linearGradient id="paint4_linear_108_539" x1="87.1245" y1="83.0299" x2="93.4034" y2="135.829" gradientUnits="userSpaceOnUse">
<stop stop-color="#FE0133"/>
<stop offset="1" stop-color="#EF971F"/>
</linearGradient>
<linearGradient id="paint5_linear_108_539" x1="212.686" y1="0" x2="212.686" y2="151.391" gradientUnits="userSpaceOnUse">
<stop stop-color="#6747E7"/>
<stop offset="1" stop-color="#B800DF"/>
</linearGradient>
</defs>
</svg>
